<?xml version="1.0" encoding="UTF-8" standalone="no"?>
<svg
   viewBox="0 0 175.00002 155.05933"
   preserveAspectRatio="xMidYMid"
   class="css-88gl6m"
   id="egaheddc"
   width="175.00002"
   height="155.05933"
   version="1.1"
   sodipodi:docname="logo.svg"
   xmlns:inkscape="http://www.inkscape.org/namespaces/inkscape"
   xmlns:sodipodi="http://sodipodi.sourceforge.net/DTD/sodipodi-0.dtd"
   xmlns="http://www.w3.org/2000/svg"
   xmlns:svg="http://www.w3.org/2000/svg">
  <sodipodi:namedview
     id="namedview4"
     pagecolor="#ffffff"
     bordercolor="#666666"
     borderopacity="1.0"
     inkscape:showpageshadow="2"
     inkscape:pageopacity="0.0"
     inkscape:pagecheckerboard="true"
     inkscape:deskcolor="#d1d1d1"
     inkscape:zoom="3.6592907"
     inkscape:cx="174.89728"
     inkscape:cy="165.05931"
     inkscape:window-width="2560"
     inkscape:window-height="1412"
     inkscape:window-x="1080"
     inkscape:window-y="0"
     inkscape:window-maximized="1"
     inkscape:current-layer="egaheddc" />
  <defs
     id="SvgjsDefs1427" />
  <g
     id="SvgjsG1428"
     featurekey="symbolContainer"
     transform="matrix(0.6281551,0,0,0.6281551,26.000002,2.7234509e-6)"
     fill="#ffffff">
    <path
       d="M 98.254,0 C 44.077,0 0,44.076 0,98.254 c 0,54.178 44.077,98.254 98.254,98.254 54.177,0 98.254,-44.076 98.254,-98.254 C 196.508,44.076 152.431,0 98.254,0 Z m 0,195.508 C 44.628,195.508 1,151.88 1,98.254 1,44.628 44.628,1 98.254,1 c 53.626,0 97.254,43.628 97.254,97.254 0,53.626 -43.628,97.254 -97.254,97.254 z"
       fill="#ffffff"
       id="path1" />
    <path
       d="m 98.254,5.453 c -51.171,0 -92.801,41.63 -92.801,92.801 0,51.171 41.63,92.801 92.801,92.801 51.171,0 92.802,-41.63 92.802,-92.801 0,-51.171 -41.631,-92.801 -92.802,-92.801 z"
       fill="#ffffff"
       id="path2" />
  </g>
  <g
     id="SvgjsG1429"
     featurekey="monogramFeature-0"
     transform="matrix(1.7530675,0,0,1.7530675,50.740792,-3.7960053)"
     fill="#111111">
    <path
       d="M 10.38,46.92 V 23.64 L 8.94,23.22 C 8.46,23.04 8.1,22.56 8.1,22.08 V 16.14 C 8.1,15.72 8.52,15 9,15 h 18.18 c 7.5,0 10.02,5.04 10.02,11.7 v 2.46 l -0.12,3.24 c -0.12,1.98 -1.08,4.26 -2.52,5.64 -0.06,0.06 -0.42,0.3 -0.42,0.36 0.06,0.06 0.18,0.18 0.24,0.18 1.8,1.44 2.46,4.14 2.52,6.36 l 0.06,1.98 c 0.24,0.12 1.2,0.42 1.44,0.48 0.48,0.18 0.9,0.54 0.9,1.08 v 6 c 0,0.54 -0.48,1.14 -1.02,1.14 h -8.46 c -0.54,0 -0.96,-0.72 -0.96,-1.2 v -7.74 c 0,-1.62 -0.72,-3.6 -2.58,-3.6 h -7.74 v 1.02 h 0.78 l -0.78,0.6 v 0.96 l 2.04,-1.56 h 0.96 l -3,2.28 v 0.54 l 0.36,0.12 v 0 l 3.9,-2.94 h 1.02 l -4.2,3.12 c 0.78,0.3 1.32,0.6 1.32,1.5 v 5.58 c 0,0.54 -0.36,1.32 -1.02,1.32 H 9.06 C 8.52,55.62 8.1,54.96 8.1,54.48 v -5.94 c 0,-0.48 0.36,-0.96 0.78,-1.08 z M 3,21.24 v -0.72 l 1.56,-1.14 h 0.96 z m 0,0.96 3.78,-2.82 h 0.3 v 0.48 L 3,22.92 Z m 0,1.68 4.08,-3.06 v 0.72 L 3,24.6 Z m 0,2.4 v -0.72 l 4.02,-3 c 0.12,0.06 0.12,0.48 0.12,0.66 z m 0.18,0.84 4.26,-3.18 c 0.18,0.12 0.3,0.18 0.54,0.3 l -4.32,3.24 c -0.12,0 -0.48,-0.36 -0.48,-0.36 z m 15.36,-3.18 v 1.62 c 0.12,-0.06 0.72,-0.54 0.84,-0.6 h 0.96 l -1.8,1.32 v 0.96 l 3.06,-2.28 h 0.96 l -4.02,3 v 6.18 h 6.48 l 3.06,-2.28 c 0,0.18 0,0.72 -0.12,0.84 l -1.86,1.38 c 2.88,0 2.94,-2.16 3,-4.32 v -0.9 c 0,-0.96 0,-1.98 -0.18,-2.94 -0.24,-1.98 -1.56,-1.98 -3.3,-1.98 H 25.26 Z M 5.16,27.96 4.5,27.78 8.82,24.54 h 0.06 l 0.54,0.12 v 0.18 l -4.14,3.12 c -0.06,0 -0.06,0.06 -0.12,0.06 z m 14.22,0.36 4.5,-3.36 h 0.9 l -4.44,3.36 z m 2.22,0.06 h -0.06 l 4.38,-3.3 c 0.18,0 0.72,0.06 0.78,0.12 l -4.32,3.24 c 0,0.06 0,0.06 -0.06,0.06 -0.24,0 -0.54,-0.12 -0.72,-0.12 z m 1.56,0.42 4.26,-3.12 c 0.18,0.06 0.36,0.3 0.36,0.42 l -4.2,3.12 C 23.46,29.1 23.28,28.98 23.16,28.8 Z M 5.34,29.58 V 28.86 L 9.42,25.8 v 0.72 z M 23.82,30 27.96,26.88 v 0.06 c 0,0 0.06,0.36 0.06,0.66 l -4.14,3.06 z M 5.34,31.26 V 30.54 L 9.42,27.42 V 28.2 Z M 24,31.56 28.08,28.5 c 0.06,0.12 0.06,0.42 0.06,0.66 L 24,32.28 v -0.6 z M 5.34,32.22 9.42,29.1 v 0.78 L 5.34,32.94 Z M 24,33.18 28.14,30.12 v 0.3 0.3 c 0,0.06 0,0.12 -0.06,0.12 L 24,33.96 Z M 5.34,34.56 V 33.9 l 4.08,-3.12 v 0.66 z m 0,1.68 V 35.46 L 9.42,32.4 v 0.72 z m 0,0.9 4.08,-3.06 v 0.72 l -4.08,3.06 z m 20.7,-3.06 z m -20.7,4.74 4.08,-3.06 v 0.72 l -4.08,3.06 z m 0,2.4 V 40.5 l 4.08,-3.06 v 0.72 z m 0,0.96 4.08,-3.06 v 0.72 L 5.34,42.9 Z m 0,1.68 4.08,-3.06 v 0.72 l -4.08,3.06 z m 0,2.4 v -0.72 l 4.08,-3.06 v 0.72 z m 15.24,1.2 4.5,-3.36 c 0.3,0 0.6,0 0.84,0.12 l -4.38,3.24 c -0.06,0.06 0,0.06 -0.06,0.06 -0.3,0 -0.6,-0.06 -0.9,-0.06 z M 5.34,47.94 v -0.72 l 4.02,-3 c 0,-0.06 0.06,-0.06 0.06,-0.06 v 0.72 z m 17.04,-0.12 4.26,-3.24 c 0.06,0 0.42,0.36 0.42,0.42 l -4.26,3.18 c -0.12,-0.12 -0.3,-0.24 -0.42,-0.36 z m 0.9,1.02 c 0,-0.06 0.06,-0.06 0.06,-0.06 l 4.14,-3.12 0.18,0.54 c 0,0.06 0,0.06 -0.06,0.06 l -4.08,3.06 C 23.4,49.2 23.28,48.96 23.28,48.84 Z M 5.34,48.9 9.42,45.84 v 0.72 l -4.08,3.06 z m 18.36,1.26 4.08,-3.06 c 0,0 0.06,0.06 0.06,0.12 v 0.54 l -4.14,3.12 v -0.06 z m 0.06,2.34 v -0.72 l 4.08,-3.06 v 0.72 z M 5.34,51.3 V 50.58 L 7.2,49.14 c -0.06,0.3 -0.06,0.54 -0.12,0.78 z m 18.42,2.16 4.08,-3.06 v 0.72 l -4.08,3.06 z M 3,54.72 V 54 l 4.08,-3.12 v 0.78 z M 3.78,51.84 5.16,51.42 3,53.04 c 0,-0.6 0.3,-1.02 0.78,-1.2 z m 19.98,4.02 v -0.72 l 4.08,-3.06 V 52.8 Z M 3,55.68 7.08,52.56 v 0.72 L 3,56.34 Z m 20.76,1.86 v -0.72 l 4.08,-3.06 v 0.72 z M 3,58.02 V 57.3 l 4.02,-3.06 h 0.06 v 0.72 z m 20.76,0.48 4.08,-3.06 c 0.06,0.12 0.18,0.48 0.18,0.6 l -4.2,3.12 C 23.76,58.98 23.76,58.8 23.76,58.62 Z M 3,58.98 c 0,-0.06 0,-0.06 0.06,-0.06 l 4.08,-3.06 c 0.12,0.18 0.24,0.3 0.36,0.48 L 3.3,59.46 3.24,59.52 C 3.18,59.52 3,59.04 3,58.98 Z m 21.24,0.84 4.32,-3.24 h 0.18 c 0.18,0.06 0.42,0.06 0.6,0.06 L 24.9,60 c -0.24,0 -0.42,-0.06 -0.66,-0.18 z M 3.9,59.94 8.34,56.64 H 9.3 L 4.86,60 H 3.9 Z M 7.08,60 H 6.12 l 4.44,-3.36 h 0.96 z m 1.26,0 4.44,-3.36 H 13.8 L 9.3,60 Z m 2.22,0 4.5,-3.36 h 0.72 v 0.18 L 11.58,60 Z m 16.56,0 h -0.96 l 4.44,-3.36 h 0.96 z m 2.22,0 h -0.96 l 4.44,-3.36 h 1.02 z m 1.26,0 3.6,-2.7 v 0.72 L 31.62,60 Z m -16.8,0 h -0.96 l 2.94,-2.28 v 0.78 z m 19.08,0 1.32,-1.02 c 0,0.54 -0.66,1.02 -1.14,1.02 z"
       fill="#111111"
       id="path3" />
  </g>
  <g
     id="SvgjsG1430"
     featurekey="nameFeature-0"
     transform="matrix(0.76997542,0,0,0.76997542,-1.2319616,124.2603)"
     fill="#ffffff">
    <path
       d="M 1.6,40 V 12 h 11.96 l 3.72,3.72 v 10.2 L 15.12,28.12 18.2,40 H 13 L 10.28,29.64 H 6.64 V 40 Z M 6.64,24.6 h 4.84 l 0.76,-0.76 V 17.8 L 11.48,17.04 H 6.64 Z M 24.892,40 V 12 h 13.72 v 5.04 h -8.68 v 6.44 h 6.44 v 5.04 h -6.44 v 6.44 h 8.68 V 40 Z m 20.812,0 V 12 h 11.96 l 3.72,3.72 v 10.76 l -3.72,3.72 h -6.92 V 40 Z m 5.04,-14.84 h 4.84 l 0.76,-0.76 v -6.6 l -0.76,-0.76 h -4.84 z M 68.476,40 V 12 h 11.96 l 3.72,3.72 v 10.2 l -2.16,2.2 3.08,11.88 h -5.2 l -2.72,-10.36 h -3.64 V 40 Z m 5.04,-15.4 h 4.84 l 0.76,-0.76 V 17.8 l -0.76,-0.76 h -4.84 z M 91.768,40 V 12 h 5.04 v 28 z m 15.852,0 -3.72,-3.72 v -5.24 h 5.04 v 3.16 l 0.76,0.76 h 4.08 l 0.76,-0.76 v -4.92 l -0.76,-0.76 h -6.16 L 103.9,24.8 V 15.72 L 107.62,12 h 8.24 l 3.72,3.72 v 5.24 h -5.04 V 17.8 l -0.76,-0.76 h -4.08 l -0.76,0.76 v 4.92 l 0.76,0.76 h 6.16 l 3.72,3.72 v 9.08 L 115.86,40 Z m 19.052,0 V 12 h 13.72 v 5.04 h -8.68 v 6.44 h 6.44 v 5.04 h -6.44 v 6.44 h 8.68 V 40 Z m 37.144,0 -5.64,-28 h 5.16 l 3.96,19.76 4,-19.76 h 5.12 l -5.64,28 z m 18.892,0 v -3.92 l 8.76,-19.04 h -8.2 V 12 h 14.28 v 3.92 l -8.76,19.04 h 8.76 V 40 Z m 25.492,0 -4.36,-28 h 5.12 l 2.48,16.12 2.52,-16.12 h 4.8 l 2.48,16.12 2.52,-16.12 h 5.12 l -4.36,28 H 218 L 216.36,29.4 214.72,40 Z"
       fill="#ffffff"
       id="path4" />
  </g>
</svg>
