<svg xmlns:xlink="http://www.w3.org/1999/xlink" xmlns="http://www.w3.org/2000/svg" viewBox="0 0 350 330.1186292050209" preserveAspectRatio="xMidYMid meet" class="css-88gl6m" id="egaheddc" width="350"  height="330.1186292050209" ><defs id="SvgjsDefs1427"></defs><g id="SvgjsG1428" featurekey="symbolContainer" transform="matrix(1.2563102037621596,0,0,1.2563102037621596,52,20)" fill="#FFFFFF"><path xmlns="http://www.w3.org/2000/svg" d="M98.254 0C44.077 0 0 44.076 0 98.254s44.077 98.254 98.254 98.254c54.177 0 98.254-44.076 98.254-98.254S152.431 0 98.254 0zm0 195.508C44.628 195.508 1 151.88 1 98.254S44.628 1 98.254 1c53.626 0 97.254 43.628 97.254 97.254s-43.628 97.254-97.254 97.254z" fill="#FFFFFF"></path><path xmlns="http://www.w3.org/2000/svg" d="M98.254 5.453c-51.171 0-92.801 41.63-92.801 92.801s41.63 92.801 92.801 92.801 92.802-41.63 92.802-92.801S149.425 5.453 98.254 5.453z" fill="#FFFFFF"></path></g><g id="SvgjsG1429" featurekey="monogramFeature-0" transform="matrix(3.506135074325297,0,0,3.506135074325297,101.48159561295185,12.407983916253457)" fill="#111111"><path d="M10.38 46.92 l0 -23.28 l-1.44 -0.42 c-0.48 -0.18 -0.84 -0.66 -0.84 -1.14 l0 -5.94 c0 -0.42 0.42 -1.14 0.9 -1.14 l18.18 0 c7.5 0 10.02 5.04 10.02 11.7 l0 2.46 l-0.12 3.24 c-0.12 1.98 -1.08 4.26 -2.52 5.64 c-0.06 0.06 -0.42 0.3 -0.42 0.36 c0.06 0.06 0.18 0.18 0.24 0.18 c1.8 1.44 2.46 4.14 2.52 6.36 l0.06 1.98 c0.24 0.12 1.2 0.42 1.44 0.48 c0.48 0.18 0.9 0.54 0.9 1.08 l0 6 c0 0.54 -0.48 1.14 -1.02 1.14 l-8.46 0 c-0.54 0 -0.96 -0.72 -0.96 -1.2 l0 -7.74 c0 -1.62 -0.72 -3.6 -2.58 -3.6 l-7.74 0 l0 1.02 l0.78 0 l-0.78 0.6 l0 0.96 l2.04 -1.56 l0.96 0 l-3 2.28 l0 0.54 l0.36 0.12 l0 0 l3.9 -2.94 l1.02 0 l-4.2 3.12 c0.78 0.3 1.32 0.6 1.32 1.5 l0 5.58 c0 0.54 -0.36 1.32 -1.02 1.32 l-10.86 0 c-0.54 0 -0.96 -0.66 -0.96 -1.14 l0 -5.94 c0 -0.48 0.36 -0.96 0.78 -1.08 z M3 21.240000000000002 l0 -0.72 l1.56 -1.14 l0.96 0 z M3 22.200000000000003 l3.78 -2.82 l0.3 0 l0 0.48 l-4.08 3.06 l0 -0.72 z M3 23.880000000000003 l4.08 -3.06 l0 0.72 l-4.08 3.06 l0 -0.72 z M3 26.28 l0 -0.72 l4.02 -3 c0.12 0.06 0.12 0.48 0.12 0.66 z M3.18 27.119999999999997 l4.26 -3.18 c0.18 0.12 0.3 0.18 0.54 0.3 l-4.32 3.24 c-0.12 0 -0.48 -0.36 -0.48 -0.36 z M18.54 23.939999999999998 l0 1.62 c0.12 -0.06 0.72 -0.54 0.84 -0.6 l0.96 0 l-1.8 1.32 l0 0.96 l3.06 -2.28 l0.96 0 l-4.02 3 l0 6.18 l6.48 0 l3.06 -2.28 c0 0.18 0 0.72 -0.12 0.84 l-1.86 1.38 c2.88 0 2.94 -2.16 3 -4.32 l0 -0.9 c0 -0.96 0 -1.98 -0.18 -2.94 c-0.24 -1.98 -1.56 -1.98 -3.3 -1.98 l-0.36 0 l-6.72 0 z M5.16 27.96 l-0.66 -0.18 l4.32 -3.24 l0.06 0 l0.54 0.12 l0 0.18 l-4.14 3.12 c-0.06 0 -0.06 0.06 -0.12 0.06 l0 -0.06 z M19.38 28.32 l4.5 -3.36 l0.9 0 l-4.44 3.36 l-0.96 0 z M21.6 28.38 l-0.06 0 l4.38 -3.3 c0.18 0 0.72 0.06 0.78 0.12 l-4.32 3.24 c0 0.06 0 0.06 -0.06 0.06 c-0.24 0 -0.54 -0.12 -0.72 -0.12 z M23.16 28.8 l4.26 -3.12 c0.18 0.06 0.36 0.3 0.36 0.42 l-4.2 3.12 c-0.12 -0.12 -0.3 -0.24 -0.42 -0.42 z M5.34 29.58 l0 -0.72 l4.08 -3.06 l0 0.72 z M23.82 30 l4.14 -3.12 l0 0.06 s0.06 0.36 0.06 0.66 l-4.14 3.06 z M5.34 31.26 l0 -0.72 l4.08 -3.12 l0 0.78 z M24 31.56 l4.08 -3.06 c0.06 0.12 0.06 0.42 0.06 0.66 l-4.14 3.12 l0 -0.6 l0 -0.12 z M5.34 32.22 l4.08 -3.12 l0 0.78 l-4.08 3.06 l0 -0.72 z M24 33.18 l4.14 -3.06 l0 0.3 l0 0.3 c0 0.06 0 0.12 -0.06 0.12 l-4.08 3.12 l0 -0.78 z M5.34 34.56 l0 -0.66 l4.08 -3.12 l0 0.66 z M5.34 36.239999999999995 l0 -0.78 l4.08 -3.06 l0 0.72 z M5.34 37.14 l4.08 -3.06 l0 0.72 l-4.08 3.06 l0 -0.72 z M26.04 34.08 l0 0 z M5.34 38.82 l4.08 -3.06 l0 0.72 l-4.08 3.06 l0 -0.72 z M5.34 41.22 l0 -0.72 l4.08 -3.06 l0 0.72 z M5.34 42.18 l4.08 -3.06 l0 0.72 l-4.08 3.06 l0 -0.72 z M5.34 43.86 l4.08 -3.06 l0 0.72 l-4.08 3.06 l0 -0.72 z M5.34 46.26 l0 -0.72 l4.08 -3.06 l0 0.72 z M20.58 47.46 l4.5 -3.36 c0.3 0 0.6 0 0.84 0.12 l-4.38 3.24 c-0.06 0.06 0 0.06 -0.06 0.06 c-0.3 0 -0.6 -0.06 -0.9 -0.06 z M5.34 47.94 l0 -0.72 l4.02 -3 c0 -0.06 0.06 -0.06 0.06 -0.06 l0 0.72 z M22.38 47.82 l4.26 -3.24 c0.06 0 0.42 0.36 0.42 0.42 l-4.26 3.18 c-0.12 -0.12 -0.3 -0.24 -0.42 -0.36 z M23.28 48.84 c0 -0.06 0.06 -0.06 0.06 -0.06 l4.14 -3.12 l0.18 0.54 c0 0.06 0 0.06 -0.06 0.06 l-4.08 3.06 c-0.12 -0.12 -0.24 -0.36 -0.24 -0.48 z M5.34 48.9 l4.08 -3.06 l0 0.72 l-4.08 3.06 l0 -0.72 z M23.7 50.16 l4.08 -3.06 s0.06 0.06 0.06 0.12 l0 0.54 l-4.14 3.12 l0 -0.06 l0 -0.66 z M23.76 52.5 l0 -0.72 l4.08 -3.06 l0 0.72 z M5.34 51.3 l0 -0.72 l1.86 -1.44 c-0.06 0.3 -0.06 0.54 -0.12 0.78 z M23.76 53.46 l4.08 -3.06 l0 0.72 l-4.08 3.06 l0 -0.72 z M3 54.72 l0 -0.72 l4.08 -3.12 l0 0.78 z M3.78 51.84 l1.38 -0.42 l-2.16 1.62 c0 -0.6 0.3 -1.02 0.78 -1.2 z M23.76 55.86 l0 -0.72 l4.08 -3.06 l0 0.72 z M3 55.68 l4.08 -3.12 l0 0.72 l-4.08 3.06 l0 -0.66 z M23.76 57.54 l0 -0.72 l4.08 -3.06 l0 0.72 z M3 58.02 l0 -0.72 l4.02 -3.06 l0.06 0 l0 0.72 z M23.76 58.5 l4.08 -3.06 c0.06 0.12 0.18 0.48 0.18 0.6 l-4.2 3.12 c-0.06 -0.18 -0.06 -0.36 -0.06 -0.54 l0 -0.12 z M3 58.98 c0 -0.06 0 -0.06 0.06 -0.06 l4.08 -3.06 c0.12 0.18 0.24 0.3 0.36 0.48 l-4.2 3.12 l-0.06 0.06 c-0.06 0 -0.24 -0.48 -0.24 -0.54 z M24.24 59.82 l4.32 -3.24 l0.18 0 c0.18 0.06 0.42 0.06 0.6 0.06 l-4.44 3.36 c-0.24 0 -0.42 -0.06 -0.66 -0.18 z M3.9 59.94 l4.44 -3.3 l0.96 0 l-4.44 3.36 l-0.96 0 l0 -0.06 z M7.08 60 l-0.96 0 l4.44 -3.36 l0.96 0 z M8.34 60 l4.44 -3.36 l1.02 0 l-4.5 3.36 l-0.96 0 z M10.56 60 l4.5 -3.36 l0.72 0 l0 0.18 l-4.2 3.18 l-1.02 0 z M27.12 60 l-0.96 0 l4.44 -3.36 l0.96 0 z M29.34 60 l-0.96 0 l4.44 -3.36 l1.02 0 z M30.6 60 l3.6 -2.7 l0 0.72 l-2.58 1.98 l-1.02 0 z M13.8 60 l-0.96 0 l2.94 -2.28 l0 0.78 z M32.88 60 l1.32 -1.02 c0 0.54 -0.66 1.02 -1.14 1.02 l-0.18 0 z" fill="#111111"></path></g><g id="SvgjsG1430" featurekey="nameFeature-0" transform="matrix(1.5399508332348104,0,0,1.5399508332348104,-2.4639213698909854,268.52059000118226)" fill="#FFFFFF"><path d="M1.6 40 l0 -28 l11.96 0 l3.72 3.72 l0 10.2 l-2.16 2.2 l3.08 11.88 l-5.2 0 l-2.72 -10.36 l-3.64 0 l0 10.36 l-5.04 0 z M6.64 24.6 l4.84 0 l0.76 -0.76 l0 -6.04 l-0.76 -0.76 l-4.84 0 l0 7.56 z M24.892000000000003 40 l0 -28 l13.72 0 l0 5.04 l-8.68 0 l0 6.44 l6.44 0 l0 5.04 l-6.44 0 l0 6.44 l8.68 0 l0 5.04 l-13.72 0 z M45.704 40 l0 -28 l11.96 0 l3.72 3.72 l0 10.76 l-3.72 3.72 l-6.92 0 l0 9.8 l-5.04 0 z M50.744 25.16 l4.84 0 l0.76 -0.76 l0 -6.6 l-0.76 -0.76 l-4.84 0 l0 8.12 z M68.476 40 l0 -28 l11.96 0 l3.72 3.72 l0 10.2 l-2.16 2.2 l3.08 11.88 l-5.2 0 l-2.72 -10.36 l-3.64 0 l0 10.36 l-5.04 0 z M73.516 24.6 l4.84 0 l0.76 -0.76 l0 -6.04 l-0.76 -0.76 l-4.84 0 l0 7.56 z M91.768 40 l0 -28 l5.04 0 l0 28 l-5.04 0 z M107.62 40 l-3.72 -3.72 l0 -5.24 l5.04 0 l0 3.16 l0.76 0.76 l4.08 0 l0.76 -0.76 l0 -4.92 l-0.76 -0.76 l-6.16 0 l-3.72 -3.72 l0 -9.08 l3.72 -3.72 l8.24 0 l3.72 3.72 l0 5.24 l-5.04 0 l0 -3.16 l-0.76 -0.76 l-4.08 0 l-0.76 0.76 l0 4.92 l0.76 0.76 l6.16 0 l3.72 3.72 l0 9.08 l-3.72 3.72 l-8.24 0 z M126.672 40 l0 -28 l13.72 0 l0 5.04 l-8.68 0 l0 6.44 l6.44 0 l0 5.04 l-6.44 0 l0 6.44 l8.68 0 l0 5.04 l-13.72 0 z M163.816 40 l-5.64 -28 l5.16 0 l3.96 19.76 l4 -19.76 l5.12 0 l-5.64 28 l-6.96 0 z M182.708 40 l0 -3.92 l8.76 -19.04 l-8.2 0 l0 -5.04 l14.28 0 l0 3.92 l-8.76 19.04 l8.76 0 l0 5.04 l-14.84 0 z M208.2 40 l-4.36 -28 l5.12 0 l2.48 16.12 l2.52 -16.12 l4.8 0 l2.48 16.12 l2.52 -16.12 l5.12 0 l-4.36 28 l-6.52 0 l-1.64 -10.6 l-1.64 10.6 l-6.52 0 z" fill="#FFFFFF"></path></g></svg>